<svg xmlns="http://www.w3.org/2000/svg" version="1.1" xmlns:xlink="http://www.w3.org/1999/xlink" width="200" height="200"><svg xmlns="http://www.w3.org/2000/svg" version="1.1" xmlns:xlink="http://www.w3.org/1999/xlink" width="200" height="200"><svg xmlns="http://www.w3.org/2000/svg" version="1.1" xmlns:xlink="http://www.w3.org/1999/xlink" viewBox="0 0 200 200"><rect width="200" height="200" fill="url('#gradient')"></rect><defs><linearGradient id="gradient" gradientTransform="rotate(45 0.5 0.5)"><stop offset="0%" stop-color="#3a55c7"></stop><stop offset="100%" stop-color="#39488e"></stop></linearGradient></defs><g><g fill="#f1eded" transform="matrix(1.6774385703648549,0,0,1.6774385703648549,12.050255751791774,112.41538891227762)" stroke="#823d7a" stroke-width="0.2"><path d="M9.98 0L9.15-2.66L4.45-2.66L3.63 0L-0.03 0L5.19-14.22L8.41-14.22L13.66 0L9.98 0ZM6.80-10.23L5.27-5.30L8.33-5.30L6.80-10.23ZM19.01-2.34L19.01-2.34Q19.71-2.34 20.09-2.72Q20.47-3.10 20.46-3.77L20.46-3.77L23.54-3.77Q23.54-2.03 22.30-0.92Q21.05 0.20 19.09 0.20L19.09 0.20Q16.79 0.20 15.46-1.25Q14.13-2.70 14.13-5.25L14.13-5.25L14.13-5.39Q14.13-6.99 14.72-8.22Q15.31-9.44 16.43-10.10Q17.54-10.76 19.06-10.76L19.06-10.76Q21.12-10.76 22.33-9.62Q23.54-8.48 23.54-6.52L23.54-6.52L20.46-6.52Q20.46-7.34 20.06-7.78Q19.66-8.22 18.98-8.22L18.98-8.22Q17.71-8.22 17.49-6.59L17.49-6.59Q17.42-6.07 17.42-5.17L17.42-5.17Q17.42-3.57 17.80-2.96Q18.18-2.34 19.01-2.34ZM34.18 0L30.89 0Q30.71-0.32 30.58-0.95L30.58-0.95Q29.67 0.20 28.04 0.20L28.04 0.20Q26.54 0.20 25.50-0.71Q24.45-1.61 24.45-2.98L24.45-2.98Q24.45-4.70 25.72-5.58Q26.99-6.46 29.41-6.46L29.41-6.46L30.43-6.46L30.43-7.01Q30.43-8.47 29.17-8.47L29.17-8.47Q28.00-8.47 28.00-7.31L28.00-7.31L24.71-7.31Q24.71-8.85 26.01-9.80Q27.31-10.76 29.34-10.76Q31.36-10.76 32.53-9.78Q33.70-8.79 33.73-7.07L33.73-7.07L33.73-2.39Q33.75-0.94 34.18-0.17L34.18-0.17L34.18 0ZM28.83-2.15L28.83-2.15Q29.44-2.15 29.85-2.41Q30.25-2.68 30.43-3.01L30.43-3.01L30.43-4.70L29.47-4.70Q27.75-4.70 27.75-3.15L27.75-3.15Q27.75-2.71 28.06-2.43Q28.36-2.15 28.83-2.15ZM35.14-5.36L35.14-5.36Q35.14-7.87 36.22-9.32Q37.30-10.76 39.25-10.76L39.25-10.76Q40.66-10.76 41.63-9.65L41.63-9.65L41.63-15L44.93-15L44.93 0L41.97 0L41.81-1.13Q40.79 0.20 39.23 0.20L39.23 0.20Q37.34 0.20 36.24-1.25Q35.14-2.70 35.14-5.36ZM38.44-5.76L38.43-5.16Q38.43-2.34 40.07-2.34L40.07-2.34Q41.16-2.34 41.63-3.26L41.63-3.26L41.63-7.29Q41.18-8.22 40.09-8.22L40.09-8.22Q38.56-8.22 38.44-5.76L38.44-5.76ZM51.91 0.20L51.91 0.20Q49.48 0.20 47.98-1.25Q46.47-2.71 46.47-5.03L46.47-5.03L46.47-5.30Q46.47-6.92 47.08-8.16Q47.68-9.40 48.83-10.08Q49.98-10.76 51.56-10.76L51.56-10.76Q53.79-10.76 55.08-9.38Q56.37-8.00 56.37-5.53L56.37-5.53L56.37-4.25L49.82-4.25Q50-3.36 50.60-2.85Q51.19-2.34 52.14-2.34L52.14-2.34Q53.70-2.34 54.58-3.44L54.58-3.44L56.08-1.66Q55.47-0.81 54.34-0.31Q53.21 0.20 51.91 0.20ZM51.54-8.22L51.54-8.22Q50.10-8.22 49.82-6.31L49.82-6.31L53.14-6.31L53.14-6.56Q53.16-7.35 52.74-7.79Q52.32-8.22 51.54-8.22ZM57.71-10.57L60.80-10.57L60.91-9.33Q62.03-10.76 63.93-10.76L63.93-10.76Q65.93-10.76 66.63-9.17L66.63-9.17Q67.71-10.76 69.74-10.76L69.74-10.76Q72.95-10.76 73.04-6.88L73.04-6.88L73.04 0L69.74 0L69.74-6.67Q69.74-7.48 69.46-7.85Q69.19-8.22 68.47-8.22L68.47-8.22Q67.49-8.22 67.01-7.35L67.01-7.35L67.02-7.22L67.02 0L63.72 0L63.72-6.65Q63.72-7.48 63.46-7.85Q63.19-8.22 62.45-8.22L62.45-8.22Q61.50-8.22 61.01-7.35L61.01-7.35L61.01 0L57.71 0L57.71-10.57ZM78.39-10.57L78.39 0L75.09 0L75.09-10.57L78.39-10.57ZM74.89-13.29L74.89-13.29Q74.89-13.99 75.40-14.44Q75.91-14.89 76.72-14.89Q77.53-14.89 78.04-14.44Q78.54-13.99 78.54-13.29Q78.54-12.59 78.04-12.14Q77.53-11.69 76.72-11.69Q75.91-11.69 75.40-12.14Q74.89-12.59 74.89-13.29ZM84.88-2.34L84.88-2.34Q85.58-2.34 85.96-2.72Q86.34-3.10 86.33-3.77L86.33-3.77L89.41-3.77Q89.41-2.03 88.17-0.92Q86.92 0.20 84.96 0.20L84.96 0.20Q82.66 0.20 81.33-1.25Q80-2.70 80-5.25L80-5.25L80-5.39Q80-6.99 80.59-8.22Q81.18-9.44 82.29-10.10Q83.41-10.76 84.93-10.76L84.93-10.76Q86.99-10.76 88.20-9.62Q89.41-8.48 89.41-6.52L89.41-6.52L86.33-6.52Q86.33-7.34 85.93-7.78Q85.53-8.22 84.85-8.22L84.85-8.22Q83.57-8.22 83.36-6.59L83.36-6.59Q83.29-6.07 83.29-5.17L83.29-5.17Q83.29-3.57 83.67-2.96Q84.05-2.34 84.88-2.34ZM100.05 0L96.76 0Q96.58-0.32 96.45-0.95L96.45-0.95Q95.54 0.20 93.91 0.20L93.91 0.20Q92.41 0.20 91.37-0.71Q90.32-1.61 90.32-2.98L90.32-2.98Q90.32-4.70 91.59-5.58Q92.86-6.46 95.28-6.46L95.28-6.46L96.30-6.46L96.30-7.01Q96.30-8.47 95.04-8.47L95.04-8.47Q93.87-8.47 93.87-7.31L93.87-7.31L90.58-7.31Q90.58-8.85 91.88-9.80Q93.18-10.76 95.21-10.76Q97.23-10.76 98.40-9.78Q99.57-8.79 99.60-7.07L99.60-7.07L99.60-2.39Q99.62-0.94 100.05-0.17L100.05-0.17L100.05 0ZM94.70-2.15L94.70-2.15Q95.31-2.15 95.72-2.41Q96.12-2.68 96.30-3.01L96.30-3.01L96.30-4.70L95.34-4.70Q93.62-4.70 93.62-3.15L93.62-3.15Q93.62-2.71 93.93-2.43Q94.23-2.15 94.70-2.15ZM104.89-15L104.89 0L101.59 0L101.59-15L104.89-15Z"></path></g></g></svg></svg><style>@media (prefers-color-scheme: light) { :root { filter: none; } }
@media (prefers-color-scheme: dark) { :root { filter: none; } }
</style></svg>